# xmcd
#
# Track frame offsets: 
#        150
#        16831
#        34171
#        49862
#        61513
#        74077
#        88908
#        102478
#        114844
#        131370
#        142603
#        157383
#        170797
#
# Disc length: 2530 seconds
#
# Revision: 3
# Processed by: cddbd v1.4PL0 Copyright (c) Steve Scherf et al.
# Submitted via: ExactAudioCopy v0.90b4
#
DISCID=b109e00d
DTITLE=The Minus 5 - Down With Wilco
DYEAR=2003
DGENRE=Americana
TTITLE0=The Days Of Wine And Booze
TTITLE1=Retrieval Of You
TTITLE2=That's Not The Way That It's Done
TTITLE3=The Town That Lost Its Groove Supply
TTITLE4=Daggers Drawn
TTITLE5=Where Will You Go?
TTITLE6=Life Left Him There
TTITLE7=The Family Gardener
TTITLE8=The Old Plantation
TTITLE9=What I Don't Believe
TTITLE10=View From Below
TTITLE11=I'm Not Bitter
TTITLE12=Dear Employer (The Reason I Quit)
EXTD=
EXTT0=
EXTT1=
EXTT2=
EXTT3=
EXTT4=
EXTT5=
EXTT6=
EXTT7=
EXTT8=
EXTT9=
EXTT10=
EXTT11=
EXTT12=
PLAYORDER=
